<?xml version="1.0" encoding="UTF-8" standalone="no"?>
<!-- Created with Inkscape (http://www.inkscape.org/) -->

<svg
   width="27mm"
   height="20mm"
   viewBox="0 0 27 20"
   version="1.1"
   id="svg1428"
   inkscape:version="1.1.1 (3bf5ae0d25, 2021-09-20, custom)"
   sodipodi:docname="playerShip_blue.svg"
   xmlns:inkscape="http://www.inkscape.org/namespaces/inkscape"
   xmlns:sodipodi="http://sodipodi.sourceforge.net/DTD/sodipodi-0.dtd"
   xmlns="http://www.w3.org/2000/svg"
   xmlns:svg="http://www.w3.org/2000/svg">
  <sodipodi:namedview
     id="namedview1430"
     pagecolor="#ffffff"
     bordercolor="#666666"
     borderopacity="1.0"
     inkscape:pageshadow="2"
     inkscape:pageopacity="0.0"
     inkscape:pagecheckerboard="0"
     inkscape:document-units="mm"
     showgrid="false"
     inkscape:zoom="10.847026"
     inkscape:cx="53.563069"
     inkscape:cy="36.32332"
     inkscape:window-width="2560"
     inkscape:window-height="1524"
     inkscape:window-x="0"
     inkscape:window-y="1482"
     inkscape:window-maximized="1"
     inkscape:current-layer="g1401"
     width="27mm"
     lock-margins="false"
     fit-margin-top="0" />
  <defs
     id="defs1425" />
  <g
     inkscape:label="Layer 1"
     inkscape:groupmode="layer"
     id="layer1"
     transform="translate(-110.43697,-94.363754)">
    <g
       id="g1401"
       transform="matrix(0.26458333,0,0,0.26458333,10.645134,-3.7292655)">
      <g
         id="g871"
         transform="translate(1.1789089,0.59055129)">
        <path
           fill="#cccccc"
           stroke-linecap="round"
           stroke-linejoin="round"
           d="m 415.2,396.1 3.4,-23.85 c 0.0667,-0.53333 0.28336,-0.96664 0.65,-1.3 0.36667,-0.33333 0.8,-0.5 1.3,-0.5 h 12.95 c 0.5,0 0.93332,0.16667 1.3,0.5 0.36666,0.33336 0.6,0.76667 0.7,1.3 l 3.4,23.85 -1.85,1.25 -3.55,-24.85 H 420.55 L 417,397.35 Z m 25.4,39.1 -5.8,9.3 -0.7,0.7 -1,0.25 h -1.75 v -2 h 1.75 l 6.25,-10.15 z m -17.9,10.25 h -1.75 l -0.95,-0.25 -0.75,-0.7 -5.8,-9.3 1.2,-1.9 6.3,10.15 h 1.75 z"
           id="path182" />
        <path
           fill="#9ebbc7"
           stroke-linecap="round"
           stroke-linejoin="round"
           d="m 438.9,396.1 24.1,13.7 4.75,-2.25 1.45,1.5 -6.3,3 -21.7,-12.3 -4.15,-2.4 z m 29.35,32.5 -4.5,2.1 -0.45,0.2 -2.5,0.45 v -2.05 l 2.1,-0.4 6.3,-3.05 z m -25.1,6.1 -2.55,0.5 -1.25,-1.9 3.8,-0.7 z m -29.7,0.5 -2.55,-0.5 v -2.1 l 3.75,0.7 z m -20.3,-3.85 -2.4,-0.45 -0.5,-0.2 -4.45,-2.1 -1,-2.75 6.3,3.05 2.05,0.4 z m -6.9,-23.8 4.75,2.25 24.2,-13.7 1.8,1.25 -4.15,2.4 -21.75,12.3 -6.3,-3 z"
           id="path184" />
        <path
           fill="#802b2b"
           stroke-linecap="round"
           stroke-linejoin="round"
           d="m 467.75,407.55 2.7,-4.85 c 0.16667,-0.33333 0.41667,-0.58333 0.75,-0.75 l 1,-0.3 h 2.3 c 0.36667,0 0.71667,0.1 1.05,0.3 l 0.75,0.85 0.2,1.1 -3.05,27.15 -0.55,1.15 c -0.3,0.3 -0.66666,0.49998 -1.1,0.6 l -1.3,-0.2 c -0.4,-0.23333 -0.68332,-0.55 -0.85,-0.95 l -1.4,-3.05 0.95,-2.75 2.25,4.95 3.05,-27.15 h -2.3 l -3,5.4 z m -36.4,37.9 h -8.65 v -2 h 8.65 z m -45.55,-16.85 -1.4,3.05 -0.9,0.95 -1.25,0.2 c -0.46667,-0.10002 -0.85,-0.3 -1.15,-0.6 -0.3,-0.33333 -0.46667,-0.71666 -0.5,-1.15 l -3.05,-27.15 c -0.0667,-0.4 -0.0166,-0.76667 0.15,-1.1 0.16667,-0.36668 0.41667,-0.65 0.75,-0.85 0.33336,-0.2 0.68336,-0.3 1.05,-0.3 h 2.25 c 0.36667,0 0.7,0.1 1,0.3 l 0.75,0.7 2.75,4.9 -1.45,1.5 -3.05,-5.4 h -2.25 l 3.05,27.15 2.25,-4.95 z"
           id="path186"
           style="fill:#2284b5;fill-opacity:1" />
        <path
           fill="#caa202"
           stroke-linecap="round"
           stroke-linejoin="round"
           d="m 460.8,431.35 -17.65,3.35 v -2.1 l 4.4,-0.85 4.45,-0.8 4.4,-0.8 4.4,-0.85 z m -49.9,3.35 -17.75,-3.35 v -2.05 l 4.45,0.85 4.45,0.8 4.4,0.8 4.45,0.85 z"
           id="path188" />
        <path
           fill="#f2f2f2"
           stroke-linecap="round"
           stroke-linejoin="round"
           d="m 417,397.35 3.55,-24.85 h 12.95 l 3.55,24.85 2.3,16.1 v 19.85 l -6.25,10.15 h -1.75 l 5.15,-8.5 v -21.5 L 432.6,376 h -11.2 l -3.9,37.45 v 21.5 l 5.2,8.5 h -1.75 l -6.3,-10.15 v -19.85 z"
           id="path190" />
        <path
           fill="#bdd6db"
           stroke-linecap="round"
           stroke-linejoin="round"
           d="m 412.85,399.75 4.15,-2.4 -2.35,16.1 v 19.85 l -3.75,-0.7 v -5.35 -1 -12.8 z m 26.5,33.55 v -19.85 l -2.3,-16.1 4.15,2.4 1.95,13.7 v 12.8 1 5.35 z"
           id="path192" />
        <path
           fill="#d3e1e7"
           stroke-linecap="round"
           stroke-linejoin="round"
           d="m 412.85,399.75 -1.95,13.7 v 12.8 L 393.15,423 v 0.95 5.35 l -2.05,-0.4 v -16.85 z m 28.35,0 21.7,12.3 v 16.85 l -2.1,0.4 V 423.95 423 l -17.65,3.25 v -12.8 z"
           id="path194" />
        <path
           fill="#b9ced7"
           stroke-linecap="round"
           stroke-linejoin="round"
           d="m 410.9,426.25 v 1 l -4.45,-0.85 -4.4,-0.8 -4.45,-0.85 -4.45,-0.8 V 423 Z m -19.8,-14.2 v 16.85 l -6.3,-3.05 v -16.8 z m 71.8,0 6.3,-3 v 16.8 l -6.3,3.05 z m -10.9,13.55 -4.45,0.8 -4.4,0.85 v -1 L 460.8,423 v 0.95 l -4.4,0.8 z"
           id="path196" />
        <path
           fill="#ffcc00"
           stroke-linecap="round"
           stroke-linejoin="round"
           d="m 410.9,427.25 v 5.35 l -4.45,-0.85 v -5.35 z m -13.3,-2.5 4.45,0.85 v 5.35 l -4.45,-0.8 z m 49.95,1.65 v 5.35 l -4.4,0.85 v -5.35 z m 4.45,4.55 v -5.35 l 4.4,-0.85 v 5.4 z"
           id="path198" />
        <path
           fill="#ac3939"
           stroke-linecap="round"
           stroke-linejoin="round"
           d="m 434.4,405.35 -0.15,-1.4 H 419.8 l -0.15,1.4 -1,8.1 h 16.7 z m -49.6,3.7 v 16.8 l -2.25,4.95 -3.05,-27.15 h 2.25 z m 37.9,34.4 -5.2,-8.5 v -21.5 L 421.4,376 h 11.2 l 3.9,37.45 v 21.5 l -5.15,8.5 z m 48.75,-12.65 -2.25,-4.95 v -16.8 l 3,-5.4 h 2.3 z"
           id="path200"
           style="fill:#36baf5;fill-opacity:1" />
        <path
           fill="#c44d4d"
           stroke-linecap="round"
           stroke-linejoin="round"
           d="m 434.25,403.95 0.15,1.4 h -14.75 l 0.15,-1.4 z"
           id="path202"
           style="fill:#63cbf7;fill-opacity:1" />
        <path
           fill="#4a3c55"
           stroke-linecap="round"
           stroke-linejoin="round"
           d="m 419.65,405.35 h 14.75 l 0.95,8.1 h -16.7 z"
           id="path204" />
        <path
           fill="#ecbd02"
           stroke-linecap="round"
           stroke-linejoin="round"
           d="m 393.15,429.3 v -5.35 l 4.45,0.8 v 5.4 z m 8.9,-3.7 4.4,0.8 v 5.35 l -4.4,-0.8 z m 45.5,6.15 v -5.35 l 4.45,-0.8 v 5.35 z m 8.85,-1.6 v -5.4 l 4.4,-0.8 v 5.35 z"
           id="path206" />
      </g>
    </g>
  </g>
</svg>
