<?xml version="1.0" encoding="UTF-8" standalone="no"?>
<!-- Created with Inkscape (http://www.inkscape.org/) -->

<svg
   width="27mm"
   height="20mm"
   viewBox="0 0 27 20"
   version="1.1"
   id="svg2188"
   inkscape:version="1.1.1 (3bf5ae0d25, 2021-09-20, custom)"
   sodipodi:docname="playerShip_blue_left.svg"
   xmlns:inkscape="http://www.inkscape.org/namespaces/inkscape"
   xmlns:sodipodi="http://sodipodi.sourceforge.net/DTD/sodipodi-0.dtd"
   xmlns="http://www.w3.org/2000/svg"
   xmlns:svg="http://www.w3.org/2000/svg">
  <sodipodi:namedview
     id="namedview2190"
     pagecolor="#ffffff"
     bordercolor="#666666"
     borderopacity="1.0"
     inkscape:pageshadow="2"
     inkscape:pageopacity="0.0"
     inkscape:pagecheckerboard="0"
     inkscape:document-units="mm"
     showgrid="false"
     inkscape:zoom="8.0000004"
     inkscape:cx="33.374999"
     inkscape:cy="36.874998"
     inkscape:window-width="1920"
     inkscape:window-height="1164"
     inkscape:window-x="640"
     inkscape:window-y="282"
     inkscape:window-maximized="1"
     inkscape:current-layer="layer1" />
  <defs
     id="defs2185" />
  <g
     inkscape:label="Layer 1"
     inkscape:groupmode="layer"
     id="layer1"
     transform="translate(-45.080755,-88.043992)">
    <g
       id="g884"
       transform="translate(1.6004678,0.08472772)">
      <g
         transform="matrix(-0.26546749,0,0,0.26635972,57.026696,97.952637)"
         id="g54">
        <g
           id="g52">
          <path
             fill="#cccccc"
             stroke-linecap="round"
             stroke-linejoin="round"
             d="m -11.9,-11.75 2.95,-23.7 0.55,-1.25 c 0.333333,-0.333333 0.7166666,-0.5 1.15,-0.5 H 7.3 c 0.433333,0 0.799999,0.166667 1.1,0.5 0.333333,0.33333 0.533332,0.75 0.6,1.25 l 3,23.7 -0.1,0.1 -1.55,1.15 L 7.3,-35.2 H -4 l -3.1,24.7 -1.55,-1.25 -0.15,0.1 -0.1,-0.1 -0.15,0.1 -0.1,-0.1 -0.15,0.1 -0.1,-0.1 -0.15,0.1 -0.1,-0.1 -0.15,0.1 -0.1,-0.1 -0.25,0.2 -0.25,-0.2 -0.15,0.1 -0.1,-0.1 -0.15,0.1 -0.1,-0.1 -0.15,0.1 -0.1,-0.1 -0.15,0.1 -0.1,-0.1 -0.15,0.1 -0.1,-0.1 -0.15,0.1 z M 8.4,36.3 7.8,37 6.95,37.25 H 5.4 v -2 h 1.55 l 5.4,-10.05 1.1,1.8 z M 13.45,27 v 0.05 z M -2.15,37.25 H -6.9 L -7.75,37 -8.4,36.3 -13.45,27.05 h 0.25 0.25 0.25 0.25 0.25 0.25 l 0.05,-0.1 0.45,0.1 h 0.25 0.25 0.25 0.25 0.25 l 1.05,-1.85 5.5,10.05 h 1.5 z M -13.45,27.05 -13.4,27 Z m 0.25,0 0.05,-0.05 z m 2.75,0 0.05,-0.05 z m -0.25,0 0.05,-0.05 z m -0.25,0 0.05,-0.05 z m -0.25,0 0.05,-0.05 z m -0.25,0 0.05,-0.05 z m -0.75,0 0.05,-0.05 z m -0.25,0 0.05,-0.05 z m -0.25,0 0.05,-0.05 z m -0.25,0 0.05,-0.05 z"
             id="path26" />
          <path
             fill="#9ebbc7"
             stroke-linecap="round"
             stroke-linejoin="round"
             d="m 12,-11.75 19.45,12.65 2.4,-1.3 0.1,0.1 0.15,-0.1 0.1,0.1 0.15,-0.1 0.1,0.1 0.15,-0.1 0.1,0.1 0.15,-0.1 0.1,0.1 0.15,-0.1 0.1,0.1 0.15,-0.1 0.15,0.2 0.35,-0.2 0.1,0.1 0.15,-0.1 0.1,0.1 0.15,-0.1 0.1,0.1 0.15,-0.1 0.1,0.1 0.15,-0.1 0.1,0.1 0.15,-0.1 1.3,1.5 -5.5,3 L 14,-8.15 10.35,-10.5 11.9,-11.65 Z m 22.95,33.7 -1.3,0.65 -0.4,0.2 -2.2,0.45 V 21.2 l 1.85,-0.4 5.5,-3 -0.85,2.7 z M 15.7,24.5 v 2.05 l -2.25,0.5 -1.1,-1.85 z m -2.25,2.55 V 27 Z m -29.1,-0.5 V 26.5 l 0.25,0.05 h 0.25 0.25 0.25 0.25 0.25 v -0.1 l 0.5,0.1 h 0.25 0.25 0.25 0.25 0.25 V 24.5 l 3.25,0.7 -1.05,1.85 -0.2,-0.05 h -0.25 -0.25 -0.25 -0.25 l -0.5,-0.05 -0.05,0.1 -0.2,-0.05 h -0.25 -0.25 -0.25 -0.25 -0.25 z m 2.25,0.45 -0.05,0.05 z m -2,-0.45 V 26.5 Z m 2.25,0.45 -0.05,0.05 z m -2,-0.45 V 26.5 Z m 2.25,0.45 -0.05,0.05 z m -2,-0.45 V 26.5 Z m 2.25,0.45 -0.05,0.05 z m -2,-0.45 V 26.5 Z m 2.25,0.45 -0.05,0.05 z m -2,-0.45 V 26.5 Z m 2.25,0.45 -0.05,0.05 z m -1.5,-0.45 V 26.5 Z m 2.25,0.45 -0.05,0.05 z m -2,-0.45 V 26.5 Z m 2.25,0.45 -0.05,0.05 z m -2,-0.45 V 26.5 Z m 2.25,0.45 -0.05,0.05 z m -2,-0.45 V 26.5 Z m 2.25,0.45 -0.05,0.05 z m -2,-0.45 V 26.5 Z m 2.25,0.45 -0.05,0.05 z m -22.75,-4.2 -0.45,-0.2 -1.2,-0.65 0.55,-1.45 -0.85,-2.7 5.5,3 1.75,0.4 v 2.05 L -28.1,23.2 h -0.25 -0.25 -0.25 -0.25 l -0.5,-0.05 v 0.1 l -0.25,-0.05 h -0.25 -0.25 -0.25 -0.25 -0.25 z m 2.05,0.4 v 0.05 z m 0.25,0 v 0.05 z m 0.25,0 v 0.05 z m 2.5,0 v 0.05 z m -0.25,0 v 0.05 z m -0.25,0 v 0.05 z m -0.25,0 v 0.05 z m -0.25,0 v 0.05 z m -0.75,0 v 0.05 z m -0.25,0 v 0.05 z m -0.25,0 v 0.05 z m -3.5,-23.6 2.35,1.3 19.6,-12.65 0.1,0.1 0.15,-0.1 0.1,0.1 0.15,-0.1 0.1,0.1 0.15,-0.1 0.1,0.1 0.15,-0.1 0.1,0.1 0.15,-0.1 0.1,0.1 0.15,-0.1 0.25,0.2 0.25,-0.2 0.1,0.1 0.15,-0.1 0.1,0.1 0.15,-0.1 0.1,0.1 0.15,-0.1 0.1,0.1 0.15,-0.1 0.1,0.1 0.15,-0.1 1.55,1.25 -3.6,2.35 -18.9,12.25 -5.5,-3 z"
             id="path28" />
          <path
             fill="#802b2b"
             stroke-linecap="round"
             stroke-linejoin="round"
             d="m 33.85,-0.4 2.35,-4.8 0.65,-0.75 c 0.266665,-0.2 0.566664,-0.3 0.9,-0.3 H 43 l 0.9,0.3 0.65,0.85 0.2,1.1 -2.65,26.95 -0.5,1.15 c -0.266668,0.3 -0.583334,0.5 -0.95,0.6 l -0.4,0.05 H 40 39.75 39.5 39.25 L 38.85,24.7 38.5,24.75 H 38.25 38 37.75 37.5 37.25 l -1,-0.25 -0.75,-0.95 -0.55,-1.6 2.6,-1.45 0.85,-2.7 1.95,4.9 L 43,-4.25 h -2 l -2.6,5.35 -1.3,-1.5 -0.15,0.1 -0.1,-0.1 -0.15,0.1 -0.1,-0.1 -0.15,0.1 -0.1,-0.1 -0.15,0.1 -0.1,-0.1 -0.15,0.1 -0.1,-0.1 -0.35,0.2 -0.15,-0.2 -0.15,0.1 -0.1,-0.1 -0.15,0.1 -0.1,-0.1 -0.15,0.1 -0.1,-0.1 -0.15,0.1 -0.1,-0.1 -0.15,0.1 -0.1,-0.1 -0.15,0.1 z M 5.4,37.25 h -7.55 v -2 H 5.4 Z m -40.2,-15.3 -0.65,1.6 -0.8,0.95 -0.9,0.25 h -0.25 -0.25 -0.25 -0.3 l -0.35,-0.05 -0.35,0.05 h -0.25 -0.25 -0.25 -0.25 -0.25 L -40.6,24.7 c -0.4,-0.1 -0.733332,-0.3 -1,-0.6 L -42,22.95 -44.65,-4 l 0.1,-1.1 0.65,-0.85 0.95,-0.3 h 5.2 l 0.85,0.3 0.65,0.7 2.4,4.85 -1.25,1.5 -2.65,-5.35 h -1.95 l 2.65,26.95 1.95,-4.9 0.85,2.7 z"
             id="path30"
             style="fill:#2284b5;fill-opacity:1" />
          <path
             fill="#caa202"
             stroke-linecap="round"
             stroke-linejoin="round"
             d="M 31.05,23.25 15.7,26.55 V 24.5 l 3.8,-0.85 3.9,-0.8 3.8,-0.8 3.85,-0.85 z m -62.15,0 V 23.2 l 0.25,0.05 h 0.25 0.25 0.25 0.25 0.25 v -0.1 l 0.5,0.1 h 0.25 0.25 0.25 0.25 0.25 V 21.2 l 3.9,0.85 3.85,0.8 3.8,0.8 3.9,0.85 v 2.05 l -0.25,-0.05 h -0.25 -0.25 -0.25 -0.25 l -0.5,-0.05 v 0.1 L -14.4,26.5 h -0.25 -0.25 -0.25 -0.25 -0.25 z m 15.45,3.25 v 0.05 z m -15.2,-3.25 V 23.2 Z m 15.45,3.25 v 0.05 z M -30.6,23.25 V 23.2 Z m 15.45,3.25 v 0.05 z m -15.2,-3.25 V 23.2 Z m 15.45,3.25 v 0.05 z M -30.1,23.25 V 23.2 Z m 15.45,3.25 v 0.05 z m -15.2,-3.25 V 23.2 Z m 15.45,3.25 v 0.05 z M -29.1,23.25 V 23.2 Z m 15.45,3.25 v 0.05 z m -15.2,-3.25 V 23.2 Z m 15.45,3.25 v 0.05 z M -28.6,23.25 V 23.2 Z m 15.45,3.25 v 0.05 z m -15.2,-3.25 V 23.2 Z m 15.45,3.25 v 0.05 z M -28.1,23.25 V 23.2 Z m 15.45,3.25 v 0.05 z"
             id="path32" />
          <path
             fill="#f2f2f2"
             stroke-linecap="round"
             stroke-linejoin="round"
             d="M -7.1,-10.5 -4,-35.2 H 7.3 l 3.05,24.7 2,15.95 V 25.2 L 6.95,35.25 H 5.4 L 9.9,26.8 V 5.45 L 6.5,-31.7 H -3.25 L -6.65,5.45 V 26.8 l 4.5,8.45 h -1.5 L -9.15,25.2 V 5.45 Z"
             id="path34" />
          <path
             fill="#ac3939"
             stroke-linecap="round"
             stroke-linejoin="round"
             d="M -2.15,35.25 -6.65,26.8 V 5.45 l 3.4,-37.15 H 6.5 L 9.9,5.45 V 26.8 l -4.5,8.45 z m 10.2,-37.8 -0.1,-1.4 h -12.6 l -0.15,1.4 -0.85,8 H 8.9 Z m -45.8,-1.7 2.65,5.35 v 16.7 l -1.95,4.9 -2.65,-26.95 z M 40.35,22.7 38.4,17.8 V 1.1 L 41,-4.25 h 2 z"
             id="path36" />
          <path
             fill="#bdd6db"
             stroke-linecap="round"
             stroke-linejoin="round"
             d="M 12.35,25.2 V 5.45 l -2,-15.95 3.65,2.35 1.7,13.6 V 18.2 19.15 24.5 Z M -12.4,19.15 V 18.2 5.45 l 1.7,-13.6 3.6,-2.35 -2.05,15.95 V 25.2 l -3.25,-0.7 z"
             id="path38" />
          <path
             fill="#d3e1e7"
             stroke-linecap="round"
             stroke-linejoin="round"
             d="M 14,-8.15 32.9,4.1 v 16.7 l -1.85,0.4 V 15.9 14.95 L 15.7,18.2 V 5.45 Z M -27.85,15.9 v 5.3 L -29.6,20.8 V 4.1 l 18.9,-12.25 -1.7,13.6 V 18.2 l -15.45,-3.25 z"
             id="path40" />
          <path
             fill="#b9ced7"
             stroke-linecap="round"
             stroke-linejoin="round"
             d="m 32.9,4.1 5.5,-3 v 16.7 l -5.5,3 z m -56.85,12.6 -3.9,-0.8 v -0.95 l 15.45,3.25 v 0.95 l -3.9,-0.8 -3.8,-0.8 z M -29.6,4.1 v 16.7 l -5.5,-3 V 1.1 Z m 53,13.45 -3.9,0.8 -3.8,0.8 V 18.2 l 15.35,-3.25 v 0.95 l -3.85,0.8 z"
             id="path42" />
          <path
             fill="#c44d4d"
             stroke-linecap="round"
             stroke-linejoin="round"
             d="m 7.95,-3.95 0.1,1.4 H -4.8 l 0.15,-1.4 z"
             id="path44" />
          <path
             fill="#4a3c55"
             stroke-linecap="round"
             stroke-linejoin="round"
             d="M -4.8,-2.55 H 8.05 l 0.85,8 H -5.65 Z"
             id="path46" />
          <path
             fill="#ecbd02"
             stroke-linecap="round"
             stroke-linejoin="round"
             d="m -27.85,15.9 3.9,0.8 v 5.35 l -3.9,-0.85 z m 7.75,1.65 3.8,0.8 v 5.3 l -3.8,-0.8 z m 39.6,6.1 v -5.3 l 3.9,-0.8 v 5.3 z M 31.05,15.9 v 5.3 L 27.2,22.05 V 16.7 Z"
             id="path48" />
          <path
             fill="#ffcc00"
             stroke-linecap="round"
             stroke-linejoin="round"
             d="M -23.95,22.05 V 16.7 l 3.85,0.85 v 5.3 z m 7.65,-3.7 3.9,0.8 v 5.35 l -3.9,-0.85 z m 35.8,0 v 5.3 l -3.8,0.85 v -5.35 z m 3.9,4.5 v -5.3 l 3.8,-0.85 v 5.35 z"
             id="path50" />
        </g>
      </g>
      <path
         fill="#802b2b"
         stroke-linecap="round"
         stroke-linejoin="round"
         d="M 47.104821,97.846804 46.48305,96.563575 46.311071,96.365137 c -0.07056,-0.05292 -0.145521,-0.07937 -0.224896,-0.07937 h -0.542396 c -0.07938,0 -0.15875,0.02646 -0.238125,0.07937 -0.07937,0.05292 -0.13671,0.127879 -0.171979,0.224896 l -0.05292,0.291042 0.714375,7.183435 c 0.0088,0.11466 0.04851,0.21608 0.119063,0.30427 0.07055,0.0794 0.15875,0.13229 0.264583,0.15875 l 0.291042,-0.0529 0.198437,-0.25136 0.33073,-0.80698 -0.224896,-0.7276 -0.515938,1.30969 -0.714375,-7.183441 h 0.542396 l 0.687917,1.42875 z M 55.5318,107.87451 h 1.997604 v -0.52916 H 55.5318 Z m 10.517187,-4.45823 0.330729,0.80698 0.198438,0.25136 0.291042,0.0529 c 0.105833,-0.0265 0.194029,-0.0794 0.264583,-0.15875 l 0.119062,-0.30427 0.701146,-7.183435 -0.02646,-0.291042 -0.171979,-0.224896 c -0.07937,-0.05292 -0.163169,-0.07937 -0.251354,-0.07937 h -0.515938 c -0.0882,0 -0.167571,0.02646 -0.238125,0.07937 l -0.171979,0.185209 -0.635,1.296458 0.343958,0.396875 0.701146,-1.42875 h 0.515938 l -0.701146,7.183441 -0.515938,-1.30969 z"
         id="path56"
         style="fill:#2284b5;fill-opacity:1;stroke-width:0.264583" />
      <path
         fill="#9ebbc7"
         stroke-linecap="round"
         stroke-linejoin="round"
         d="m 46.998988,103.41628 1.031875,0.55563 0.105833,0.0529 0.582083,0.11907 v -0.5424 l -0.489479,-0.10583 -1.455208,-0.80698 z m 5.794374,1.61396 0.595313,0.13229 0.291042,-0.50271 -0.886355,-0.1852 z m 6.879167,0.13229 0.582083,-0.13229 v -0.55562 l -0.859895,0.1852 z m 4.683125,-1.01864 0.555625,-0.11907 0.105833,-0.0529 1.031875,-0.55563 0.238125,-0.7276 -1.468437,0.80698 -0.463021,0.10583 z m 1.5875,-6.297086 -1.098021,0.595312 -5.582708,-3.624791 -0.410104,0.343958 0.9525,0.621771 5.013854,3.267604 1.468437,-0.806979 z m -12.157604,-3.029479 -5.582708,3.624791 -1.098021,-0.595312 -0.330729,0.396875 1.455208,0.806979 5.013854,-3.267604 0.965729,-0.621771 z"
         id="path58"
         style="stroke-width:0.264583" />
      <path
         fill="#caa202"
         stroke-linecap="round"
         stroke-linejoin="round"
         d="m 48.718779,104.14389 4.074583,0.88635 v -0.55562 l -1.018645,-0.2249 -1.018646,-0.21167 -1.018646,-0.21166 -1.018646,-0.2249 z m 11.535833,0.88635 4.101042,-0.88635 v -0.5424 l -1.031875,0.2249 -1.018646,0.21166 -1.018646,0.21167 -1.031875,0.2249 z"
         id="path60"
         style="stroke-width:0.264583" />
      <path
         fill="#cccccc"
         stroke-linecap="round"
         stroke-linejoin="round"
         d="m 53.388675,105.16253 1.336146,2.46063 0.171979,0.18521 0.224896,0.0661 H 55.5318 v -0.52916 h -0.410104 l -1.441979,-2.68553 z m 4.140729,2.71198 h 0.396875 l 0.224896,-0.0661 0.171979,-0.18521 1.349375,-2.46063 -0.277812,-0.50271 -1.468438,2.68553 h -0.396875 z m 1.733021,-13.057185 -0.780521,-6.310313 c -0.01765,-0.132291 -0.07056,-0.242533 -0.15875,-0.330729 -0.07937,-0.0882 -0.180798,-0.132291 -0.304271,-0.132291 h -2.989791 c -0.114644,0 -0.21607,0.04409 -0.304271,0.132291 -0.07937,0.0882 -0.132297,0.198438 -0.15875,0.330729 l -0.780521,6.310313 0.423333,0.343958 0.820209,-6.588125 h 2.989791 l 0.833438,6.588125 z"
         id="path62"
         style="stroke-width:0.264583" />
      <path
         fill="#ac3939"
         stroke-linecap="round"
         stroke-linejoin="round"
         d="m 46.774092,98.243679 -0.687917,-1.42875 h -0.542396 l 0.714375,7.183441 0.515938,-1.30969 z m 10.755312,9.101671 1.203854,-2.24896 v -5.688544 l -0.899583,-9.895417 h -2.592917 l -0.899583,9.895417 v 5.688544 l 1.190625,2.24896 z m -2.711979,-10.0674 0.03969,-0.383646 h 3.34698 l 0.02646,0.383646 0.238125,2.129896 h -3.862917 z m 12.170833,-0.463021 -0.701146,1.42875 v 4.445001 l 0.515938,1.30969 0.701146,-7.183441 z"
         id="path64"
         style="fill:#36baf5;fill-opacity:1;stroke-width:0.264583" />
      <path
         fill="#f2f2f2"
         stroke-linecap="round"
         stroke-linejoin="round"
         d="m 55.029092,88.573158 -0.820209,6.588125 -0.529166,4.246563 v 5.251974 l 1.441979,2.68553 H 55.5318 l -1.190625,-2.24896 v -5.688544 l 0.899583,-9.895417 h 2.592917 l 0.899583,9.895417 v 5.688544 l -1.203854,2.24896 h 0.396875 l 1.468438,-2.68553 v -5.251974 l -0.542396,-4.246563 -0.833438,-6.588125 z"
         id="path66"
         style="stroke-width:0.264583" />
      <path
         fill="#bdd6db"
         stroke-linecap="round"
         stroke-linejoin="round"
         d="m 58.852321,95.161283 0.542396,4.246563 v 5.251974 l 0.859895,-0.1852 v -1.41552 -0.26459 -3.386664 l -0.449791,-3.624792 z m -5.172604,9.498537 v -5.251974 l 0.529166,-4.246563 -0.965729,0.621771 -0.449792,3.624792 v 3.386664 0.26459 1.41552 z"
         id="path68"
         style="stroke-width:0.264583" />
      <path
         fill="#d3e1e7"
         stroke-linecap="round"
         stroke-linejoin="round"
         d="m 59.804821,95.783054 0.449791,3.624792 v 3.386664 l 4.101042,-0.85989 v 0.25135 1.41552 l 0.463021,-0.10583 v -4.445002 z m -7.011459,3.624792 0.449792,-3.624792 -5.013854,3.267604 v 4.445002 l 0.489479,0.10583 v -1.41552 -0.25135 l 4.074583,0.85989 z"
         id="path70"
         style="stroke-width:0.264583" />
      <path
         fill="#b9ced7"
         stroke-linecap="round"
         stroke-linejoin="round"
         d="m 60.254612,102.79451 v 0.26459 l 1.031875,-0.2249 1.018646,-0.21167 1.018646,-0.22489 1.031875,-0.21167 v -0.25135 z m 4.564063,-3.743852 v 4.445002 l 1.468437,-0.80698 v -4.445001 z m -12.025313,3.743852 -4.074583,-0.85989 v 0.25135 l 1.018646,0.21167 1.018646,0.22489 1.018646,0.21167 1.018645,0.2249 z m -4.564062,0.70115 v -4.445002 l -1.455208,-0.806979 v 4.445001 z"
         id="path72"
         style="stroke-width:0.264583" />
      <path
         fill="#ffcc00"
         stroke-linecap="round"
         stroke-linejoin="round"
         d="m 60.254612,103.0591 v 1.41552 l 1.031875,-0.2249 v -1.41552 z m -10.517187,-0.66146 v 1.42875 l 1.018646,0.21166 v -1.41552 z m 2.037292,0.43656 v 1.41552 l 1.018645,0.2249 v -1.41552 z m 10.530416,-0.21167 v 1.41552 l 1.018646,-0.21166 v -1.42875 z"
         id="path74"
         style="stroke-width:0.264583" />
      <path
         fill="#c44d4d"
         stroke-linecap="round"
         stroke-linejoin="round"
         d="m 54.857112,96.894304 -0.03969,0.383646 h 3.413125 l -0.02646,-0.383646 z"
         id="path76"
         style="fill:#63cbf7;fill-opacity:1;stroke-width:0.264583" />
      <path
         fill="#4a3c55"
         stroke-linecap="round"
         stroke-linejoin="round"
         d="m 58.23055,97.27795 h -3.413125 l -0.211667,2.129896 h 3.862917 z"
         id="path78"
         style="stroke-width:0.264583" />
      <path
         fill="#ecbd02"
         stroke-linecap="round"
         stroke-linejoin="round"
         d="m 64.355654,103.60149 v -1.41552 l -1.031875,0.21167 v 1.42875 z m -15.636875,-1.41552 v 1.41552 l 1.018646,0.2249 v -1.42875 z m 3.055938,2.06375 v -1.41552 l -1.018646,-0.21167 v 1.41552 z m 9.51177,-1.41552 v 1.41552 l 1.018646,-0.21167 v -1.41552 z"
         id="path80"
         style="stroke-width:0.264583" />
    </g>
  </g>
</svg>
