<?xml version="1.0" encoding="UTF-8" standalone="no"?>
<!-- Created with Inkscape (http://www.inkscape.org/) -->

<svg
   width="27mm"
   height="20mm"
   viewBox="0 0 27 20"
   version="1.1"
   id="svg3571"
   inkscape:version="1.1.1 (3bf5ae0d25, 2021-09-20, custom)"
   sodipodi:docname="playerShip_blue_right.svg"
   xmlns:inkscape="http://www.inkscape.org/namespaces/inkscape"
   xmlns:sodipodi="http://sodipodi.sourceforge.net/DTD/sodipodi-0.dtd"
   xmlns="http://www.w3.org/2000/svg"
   xmlns:svg="http://www.w3.org/2000/svg">
  <sodipodi:namedview
     id="namedview3573"
     pagecolor="#ffffff"
     bordercolor="#666666"
     borderopacity="1.0"
     inkscape:pageshadow="2"
     inkscape:pageopacity="0.0"
     inkscape:pagecheckerboard="0"
     inkscape:document-units="mm"
     showgrid="false"
     inkscape:zoom="10.847026"
     inkscape:cx="54.669363"
     inkscape:cy="40.656305"
     inkscape:window-width="2560"
     inkscape:window-height="1524"
     inkscape:window-x="0"
     inkscape:window-y="1482"
     inkscape:window-maximized="1"
     inkscape:current-layer="g236" />
  <defs
     id="defs3568" />
  <g
     inkscape:label="Layer 1"
     inkscape:groupmode="layer"
     id="layer1"
     transform="translate(123.87559,52.065043)">
    <g
       transform="matrix(0.26546749,0,0,0.26635972,-112.02247,-42.156461)"
       id="g238">
      <g
         id="g236">
        <g
           id="g856"
           transform="translate(6.1536975,0.31821255)">
          <path
             fill="#cccccc"
             stroke-linecap="round"
             stroke-linejoin="round"
             d="m -11.9,-11.75 2.95,-23.7 0.55,-1.25 c 0.333333,-0.333333 0.7166666,-0.5 1.15,-0.5 H 7.3 c 0.433333,0 0.799999,0.166667 1.1,0.5 0.333333,0.33333 0.533332,0.75 0.6,1.25 l 3,23.7 -0.1,0.1 -1.55,1.15 L 7.3,-35.2 H -4 l -3.1,24.7 -1.55,-1.25 -0.15,0.1 -0.1,-0.1 -0.15,0.1 -0.1,-0.1 -0.15,0.1 -0.1,-0.1 -0.15,0.1 -0.1,-0.1 -0.15,0.1 -0.1,-0.1 -0.25,0.2 -0.25,-0.2 -0.15,0.1 -0.1,-0.1 -0.15,0.1 -0.1,-0.1 -0.15,0.1 -0.1,-0.1 -0.15,0.1 -0.1,-0.1 -0.15,0.1 -0.1,-0.1 -0.15,0.1 z M 8.4,36.3 7.8,37 6.95,37.25 H 5.4 v -2 h 1.55 l 5.4,-10.05 1.1,1.8 z M 13.45,27 v 0.05 z M -2.15,37.25 H -6.9 L -7.75,37 -8.4,36.3 -13.45,27.05 h 0.25 0.25 0.25 0.25 0.25 0.25 l 0.05,-0.1 0.45,0.1 h 0.25 0.25 0.25 0.25 0.25 l 1.05,-1.85 5.5,10.05 h 1.5 z M -13.45,27.05 -13.4,27 Z m 0.25,0 0.05,-0.05 z m 2.75,0 0.05,-0.05 z m -0.25,0 0.05,-0.05 z m -0.25,0 0.05,-0.05 z m -0.25,0 0.05,-0.05 z m -0.25,0 0.05,-0.05 z m -0.75,0 0.05,-0.05 z m -0.25,0 0.05,-0.05 z m -0.25,0 0.05,-0.05 z m -0.25,0 0.05,-0.05 z"
             id="path210" />
          <path
             fill="#9ebbc7"
             stroke-linecap="round"
             stroke-linejoin="round"
             d="m 12,-11.75 19.45,12.65 2.4,-1.3 0.1,0.1 0.15,-0.1 0.1,0.1 0.15,-0.1 0.1,0.1 0.15,-0.1 0.1,0.1 0.15,-0.1 0.1,0.1 0.15,-0.1 0.1,0.1 0.15,-0.1 0.15,0.2 0.35,-0.2 0.1,0.1 0.15,-0.1 0.1,0.1 0.15,-0.1 0.1,0.1 0.15,-0.1 0.1,0.1 0.15,-0.1 0.1,0.1 0.15,-0.1 1.3,1.5 -5.5,3 L 14,-8.15 10.35,-10.5 11.9,-11.65 Z m 22.95,33.7 -1.3,0.65 -0.4,0.2 -2.2,0.45 V 21.2 l 1.85,-0.4 5.5,-3 -0.85,2.7 z M 15.7,24.5 v 2.05 l -2.25,0.5 -1.1,-1.85 z m -2.25,2.55 V 27 Z m -29.1,-0.5 V 26.5 l 0.25,0.05 h 0.25 0.25 0.25 0.25 0.25 v -0.1 l 0.5,0.1 h 0.25 0.25 0.25 0.25 0.25 V 24.5 l 3.25,0.7 -1.05,1.85 -0.2,-0.05 h -0.25 -0.25 -0.25 -0.25 l -0.5,-0.05 -0.05,0.1 -0.2,-0.05 h -0.25 -0.25 -0.25 -0.25 -0.25 z m 2.25,0.45 -0.05,0.05 z m -2,-0.45 V 26.5 Z m 2.25,0.45 -0.05,0.05 z m -2,-0.45 V 26.5 Z m 2.25,0.45 -0.05,0.05 z m -2,-0.45 V 26.5 Z m 2.25,0.45 -0.05,0.05 z m -2,-0.45 V 26.5 Z m 2.25,0.45 -0.05,0.05 z m -2,-0.45 V 26.5 Z m 2.25,0.45 -0.05,0.05 z m -1.5,-0.45 V 26.5 Z m 2.25,0.45 -0.05,0.05 z m -2,-0.45 V 26.5 Z m 2.25,0.45 -0.05,0.05 z m -2,-0.45 V 26.5 Z m 2.25,0.45 -0.05,0.05 z m -2,-0.45 V 26.5 Z m 2.25,0.45 -0.05,0.05 z m -2,-0.45 V 26.5 Z m 2.25,0.45 -0.05,0.05 z m -22.75,-4.2 -0.45,-0.2 -1.2,-0.65 0.55,-1.45 -0.85,-2.7 5.5,3 1.75,0.4 v 2.05 L -28.1,23.2 h -0.25 -0.25 -0.25 -0.25 l -0.5,-0.05 v 0.1 l -0.25,-0.05 h -0.25 -0.25 -0.25 -0.25 -0.25 z m 2.05,0.4 v 0.05 z m 0.25,0 v 0.05 z m 0.25,0 v 0.05 z m 2.5,0 v 0.05 z m -0.25,0 v 0.05 z m -0.25,0 v 0.05 z m -0.25,0 v 0.05 z m -0.25,0 v 0.05 z m -0.75,0 v 0.05 z m -0.25,0 v 0.05 z m -0.25,0 v 0.05 z m -3.5,-23.6 2.35,1.3 19.6,-12.65 0.1,0.1 0.15,-0.1 0.1,0.1 0.15,-0.1 0.1,0.1 0.15,-0.1 0.1,0.1 0.15,-0.1 0.1,0.1 0.15,-0.1 0.1,0.1 0.15,-0.1 0.25,0.2 0.25,-0.2 0.1,0.1 0.15,-0.1 0.1,0.1 0.15,-0.1 0.1,0.1 0.15,-0.1 0.1,0.1 0.15,-0.1 0.1,0.1 0.15,-0.1 1.55,1.25 -3.6,2.35 -18.9,12.25 -5.5,-3 z"
             id="path212" />
          <path
             fill="#802b2b"
             stroke-linecap="round"
             stroke-linejoin="round"
             d="m 33.85,-0.4 2.35,-4.8 0.65,-0.75 c 0.266665,-0.2 0.566664,-0.3 0.9,-0.3 H 43 l 0.9,0.3 0.65,0.85 0.2,1.1 -2.65,26.95 -0.5,1.15 c -0.266668,0.3 -0.583334,0.5 -0.95,0.6 l -0.4,0.05 H 40 39.75 39.5 39.25 L 38.85,24.7 38.5,24.75 H 38.25 38 37.75 37.5 37.25 l -1,-0.25 -0.75,-0.95 -0.55,-1.6 2.6,-1.45 0.85,-2.7 1.95,4.9 L 43,-4.25 h -2 l -2.6,5.35 -1.3,-1.5 -0.15,0.1 -0.1,-0.1 -0.15,0.1 -0.1,-0.1 -0.15,0.1 -0.1,-0.1 -0.15,0.1 -0.1,-0.1 -0.15,0.1 -0.1,-0.1 -0.35,0.2 -0.15,-0.2 -0.15,0.1 -0.1,-0.1 -0.15,0.1 -0.1,-0.1 -0.15,0.1 -0.1,-0.1 -0.15,0.1 -0.1,-0.1 -0.15,0.1 -0.1,-0.1 -0.15,0.1 z M 5.4,37.25 h -7.55 v -2 H 5.4 Z m -40.2,-15.3 -0.65,1.6 -0.8,0.95 -0.9,0.25 h -0.25 -0.25 -0.25 -0.3 l -0.35,-0.05 -0.35,0.05 h -0.25 -0.25 -0.25 -0.25 -0.25 L -40.6,24.7 c -0.4,-0.1 -0.733332,-0.3 -1,-0.6 L -42,22.95 -44.65,-4 l 0.1,-1.1 0.65,-0.85 0.95,-0.3 h 5.2 l 0.85,0.3 0.65,0.7 2.4,4.85 -1.25,1.5 -2.65,-5.35 h -1.95 l 2.65,26.95 1.95,-4.9 0.85,2.7 z"
             id="path214"
             style="fill:#2284b5;fill-opacity:1" />
          <path
             fill="#caa202"
             stroke-linecap="round"
             stroke-linejoin="round"
             d="M 31.05,23.25 15.7,26.55 V 24.5 l 3.8,-0.85 3.9,-0.8 3.8,-0.8 3.85,-0.85 z m -62.15,0 V 23.2 l 0.25,0.05 h 0.25 0.25 0.25 0.25 0.25 v -0.1 l 0.5,0.1 h 0.25 0.25 0.25 0.25 0.25 V 21.2 l 3.9,0.85 3.85,0.8 3.8,0.8 3.9,0.85 v 2.05 l -0.25,-0.05 h -0.25 -0.25 -0.25 -0.25 l -0.5,-0.05 v 0.1 L -14.4,26.5 h -0.25 -0.25 -0.25 -0.25 -0.25 z m 15.45,3.25 v 0.05 z m -15.2,-3.25 V 23.2 Z m 15.45,3.25 v 0.05 z M -30.6,23.25 V 23.2 Z m 15.45,3.25 v 0.05 z m -15.2,-3.25 V 23.2 Z m 15.45,3.25 v 0.05 z M -30.1,23.25 V 23.2 Z m 15.45,3.25 v 0.05 z m -15.2,-3.25 V 23.2 Z m 15.45,3.25 v 0.05 z M -29.1,23.25 V 23.2 Z m 15.45,3.25 v 0.05 z m -15.2,-3.25 V 23.2 Z m 15.45,3.25 v 0.05 z M -28.6,23.25 V 23.2 Z m 15.45,3.25 v 0.05 z m -15.2,-3.25 V 23.2 Z m 15.45,3.25 v 0.05 z M -28.1,23.25 V 23.2 Z m 15.45,3.25 v 0.05 z"
             id="path216" />
          <path
             fill="#f2f2f2"
             stroke-linecap="round"
             stroke-linejoin="round"
             d="M -7.1,-10.5 -4,-35.2 H 7.3 l 3.05,24.7 2,15.95 V 25.2 L 6.95,35.25 H 5.4 L 9.9,26.8 V 5.45 L 6.5,-31.7 H -3.25 L -6.65,5.45 V 26.8 l 4.5,8.45 h -1.5 L -9.15,25.2 V 5.45 Z"
             id="path218" />
          <path
             fill="#ac3939"
             stroke-linecap="round"
             stroke-linejoin="round"
             d="M -2.15,35.25 -6.65,26.8 V 5.45 l 3.4,-37.15 H 6.5 L 9.9,5.45 V 26.8 l -4.5,8.45 z m 10.2,-37.8 -0.1,-1.4 h -12.6 l -0.15,1.4 -0.85,8 H 8.9 Z m -45.8,-1.7 2.65,5.35 v 16.7 l -1.95,4.9 -2.65,-26.95 z M 40.35,22.7 38.4,17.8 V 1.1 L 41,-4.25 h 2 z"
             id="path220"
             style="fill:#36baf5;fill-opacity:1" />
          <path
             fill="#bdd6db"
             stroke-linecap="round"
             stroke-linejoin="round"
             d="M 12.35,25.2 V 5.45 l -2,-15.95 3.65,2.35 1.7,13.6 V 18.2 19.15 24.5 Z M -12.4,19.15 V 18.2 5.45 l 1.7,-13.6 3.6,-2.35 -2.05,15.95 V 25.2 l -3.25,-0.7 z"
             id="path222" />
          <path
             fill="#d3e1e7"
             stroke-linecap="round"
             stroke-linejoin="round"
             d="M 14,-8.15 32.9,4.1 v 16.7 l -1.85,0.4 V 15.9 14.95 L 15.7,18.2 V 5.45 Z M -27.85,15.9 v 5.3 L -29.6,20.8 V 4.1 l 18.9,-12.25 -1.7,13.6 V 18.2 l -15.45,-3.25 z"
             id="path224" />
          <path
             fill="#b9ced7"
             stroke-linecap="round"
             stroke-linejoin="round"
             d="m 32.9,4.1 5.5,-3 v 16.7 l -5.5,3 z m -56.85,12.6 -3.9,-0.8 v -0.95 l 15.45,3.25 v 0.95 l -3.9,-0.8 -3.8,-0.8 z M -29.6,4.1 v 16.7 l -5.5,-3 V 1.1 Z m 53,13.45 -3.9,0.8 -3.8,0.8 V 18.2 l 15.35,-3.25 v 0.95 l -3.85,0.8 z"
             id="path226" />
          <path
             fill="#c44d4d"
             stroke-linecap="round"
             stroke-linejoin="round"
             d="m 7.95,-3.95 0.1,1.4 H -4.8 l 0.15,-1.4 z"
             id="path228"
             style="fill:#63cbf7;fill-opacity:1" />
          <path
             fill="#4a3c55"
             stroke-linecap="round"
             stroke-linejoin="round"
             d="M -4.8,-2.55 H 8.05 l 0.85,8 H -5.65 Z"
             id="path230" />
          <path
             fill="#ecbd02"
             stroke-linecap="round"
             stroke-linejoin="round"
             d="m -27.85,15.9 3.9,0.8 v 5.35 l -3.9,-0.85 z m 7.75,1.65 3.8,0.8 v 5.3 l -3.8,-0.8 z m 39.6,6.1 v -5.3 l 3.9,-0.8 v 5.3 z M 31.05,15.9 v 5.3 L 27.2,22.05 V 16.7 Z"
             id="path232" />
          <path
             fill="#ffcc00"
             stroke-linecap="round"
             stroke-linejoin="round"
             d="M -23.95,22.05 V 16.7 l 3.85,0.85 v 5.3 z m 7.65,-3.7 3.9,0.8 v 5.35 l -3.9,-0.85 z m 35.8,0 v 5.3 l -3.8,0.85 v -5.35 z m 3.9,4.5 v -5.3 l 3.8,-0.85 v 5.35 z"
             id="path234" />
        </g>
      </g>
    </g>
  </g>
</svg>
